# xmcd
#
# Track frame offsets:
#	150
#	15975
#	29362
#	45187
#	57037
#	71550
#	89137
#	101025
#	119025
#	135487
#	156225
#
# Disc length: 2320 seconds
#
# Revision: 0
# Processed by: cddbd v1.4PL0 Copyright (c) Steve Scherf et al.
# Submitted via: dBpowerAMP V4.0
#
DISCID=8e090e0b
DTITLE=Star Hustler - Songs for Betty
DYEAR=2000
DGENRE=Country
TTITLE0=Speechless
TTITLE1=Gone Missing
TTITLE2=Even Still
TTITLE3=Favorite Song
TTITLE4=Cool December Street
TTITLE5=Dogs
TTITLE6=Once in Awhile
TTITLE7=Stargazing Lilly
TTITLE8=It Won't Hurt
TTITLE9=Downfall
TTITLE10=White Freightliner
EXTD=
EXTT0=
EXTT1=
EXTT2=
EXTT3=
EXTT4=
EXTT5=
EXTT6=
EXTT7=
EXTT8=
EXTT9=
EXTT10=
PLAYORDER=
